<svg width="109" height="72" viewBox="0 0 109 72" fill="none" xmlns="http://www.w3.org/2000/svg">
<path d="M4.08855 20.195C3.44721 20.195 2.86871 20.0888 2.35305 19.8765C1.84171 19.6642 1.41705 19.363 1.07905 18.973C0.745379 18.583 0.522213 18.1193 0.409546 17.582L1.17655 17.452C1.33688 18.076 1.67921 18.5678 2.20355 18.9275C2.73221 19.2872 3.36705 19.467 4.10805 19.467C4.61071 19.467 5.05488 19.3868 5.44055 19.2265C5.82621 19.0662 6.12738 18.8408 6.34405 18.5505C6.56071 18.2558 6.66905 17.9135 6.66905 17.5235C6.66905 17.2418 6.61705 17.0057 6.51305 16.815C6.41338 16.6243 6.28338 16.4683 6.12305 16.347C5.96271 16.2213 5.79155 16.1217 5.60955 16.048C5.42755 15.97 5.25638 15.9072 5.09605 15.8595L2.74305 15.1575C2.43105 15.0665 2.15155 14.9538 1.90455 14.8195C1.66188 14.6808 1.45605 14.5227 1.28705 14.345C1.12238 14.163 0.994546 13.9572 0.903546 13.7275C0.816879 13.4978 0.773546 13.2422 0.773546 12.9605C0.773546 12.4578 0.907879 12.018 1.17655 11.641C1.44521 11.264 1.81355 10.9715 2.28155 10.7635C2.75388 10.5512 3.29555 10.445 3.90655 10.445C4.52188 10.4493 5.07438 10.5642 5.56405 10.7895C6.05371 11.0105 6.45455 11.3247 6.76655 11.732C7.08288 12.1393 7.28655 12.6225 7.37755 13.1815L6.60405 13.318C6.54338 12.889 6.38738 12.5142 6.13605 12.1935C5.88905 11.8728 5.57271 11.6237 5.18705 11.446C4.80138 11.2683 4.37238 11.1795 3.90005 11.1795C3.44505 11.1752 3.04205 11.251 2.69105 11.407C2.34438 11.563 2.07138 11.7732 1.87205 12.0375C1.67271 12.3018 1.57305 12.6008 1.57305 12.9345C1.57305 13.2812 1.66621 13.5585 1.85255 13.7665C2.04321 13.9702 2.27505 14.1305 2.54805 14.2475C2.82538 14.3645 3.08971 14.4598 3.34105 14.5335L5.22605 15.0925C5.40371 15.1445 5.61605 15.2182 5.86305 15.3135C6.11005 15.4088 6.35271 15.5453 6.59105 15.723C6.82938 15.8963 7.02655 16.1282 7.18255 16.4185C7.34288 16.7045 7.42305 17.0642 7.42305 17.4975C7.42305 17.9178 7.34288 18.2948 7.18255 18.6285C7.02221 18.9622 6.79255 19.246 6.49355 19.48C6.19455 19.7097 5.84138 19.8852 5.43405 20.0065C5.02671 20.1322 4.57821 20.195 4.08855 20.195Z" fill="black"/>
<path d="M12.5806 20.195C11.6489 20.195 10.8667 19.9892 10.2341 19.5775C9.60139 19.1615 9.12472 18.5873 8.80405 17.855C8.48339 17.1227 8.32305 16.2777 8.32305 15.32C8.32305 14.3623 8.48339 13.5173 8.80405 12.785C9.12472 12.0527 9.60139 11.4807 10.2341 11.069C10.8667 10.653 11.6489 10.445 12.5806 10.445C13.6682 10.445 14.5501 10.7267 15.2261 11.29C15.9064 11.8533 16.3679 12.6073 16.6106 13.552L15.8371 13.7405C15.6377 12.9562 15.2651 12.3343 14.7191 11.875C14.1774 11.4113 13.4646 11.1795 12.5806 11.1795C11.8136 11.1795 11.1744 11.355 10.6631 11.706C10.1561 12.057 9.77255 12.5445 9.51255 13.1685C9.25689 13.7925 9.12689 14.5097 9.12255 15.32C9.11389 16.1303 9.23739 16.8475 9.49305 17.4715C9.75305 18.0912 10.1409 18.5787 10.6566 18.934C11.1722 19.285 11.8136 19.4605 12.5806 19.4605C13.4646 19.4605 14.1774 19.2287 14.7191 18.765C15.2651 18.3013 15.6377 17.6795 15.8371 16.8995L16.6106 17.088C16.3679 18.0327 15.9064 18.7867 15.2261 19.35C14.5501 19.9133 13.6682 20.195 12.5806 20.195Z" fill="black"/>
<path d="M18.1345 20V10.64H21.664C21.755 10.64 21.8525 10.6443 21.9565 10.653C22.0648 10.6573 22.1775 10.6703 22.2945 10.692C22.7625 10.7657 23.1633 10.9347 23.497 11.199C23.835 11.459 24.0928 11.7883 24.2705 12.187C24.4481 12.5813 24.537 13.0168 24.537 13.4935C24.537 14.1825 24.3528 14.7827 23.9845 15.294C23.6161 15.8053 23.1026 16.1303 22.444 16.269L22.2295 16.3535H18.882V20H18.1345ZM23.9 20L22.054 16.191L22.7495 15.84L24.7775 20H23.9ZM18.882 15.619H21.651C21.729 15.619 21.8178 15.6147 21.9175 15.606C22.0215 15.5973 22.1255 15.5843 22.2295 15.567C22.5675 15.4977 22.8491 15.3612 23.0745 15.1575C23.2998 14.9495 23.4688 14.7003 23.5815 14.41C23.6941 14.1197 23.7505 13.8142 23.7505 13.4935C23.7505 13.1728 23.6941 12.8695 23.5815 12.5835C23.4688 12.2932 23.2998 12.0462 23.0745 11.8425C22.8491 11.6345 22.5675 11.4958 22.2295 11.4265C22.1255 11.4048 22.0215 11.3897 21.9175 11.381C21.8178 11.3723 21.729 11.368 21.651 11.368H18.882V15.619Z" fill="black"/>
<path d="M30.0462 20.195C29.1145 20.195 28.3323 19.9892 27.6997 19.5775C27.067 19.1615 26.5903 18.5873 26.2697 17.855C25.949 17.1227 25.7887 16.2777 25.7887 15.32C25.7887 14.3623 25.949 13.5173 26.2697 12.785C26.5903 12.0527 27.067 11.4807 27.6997 11.069C28.3323 10.653 29.1145 10.445 30.0462 10.445C30.9778 10.445 31.7578 10.653 32.3862 11.069C33.0188 11.4807 33.4955 12.0527 33.8162 12.785C34.1368 13.5173 34.2972 14.3623 34.2972 15.32C34.2972 16.2777 34.1368 17.1227 33.8162 17.855C33.4955 18.5873 33.0188 19.1615 32.3862 19.5775C31.7578 19.9892 30.9778 20.195 30.0462 20.195ZM30.0462 19.4605C30.8132 19.4648 31.4523 19.2915 31.9637 18.9405C32.475 18.5852 32.8585 18.0955 33.1142 17.4715C33.3698 16.8475 33.4977 16.1303 33.4977 15.32C33.4977 14.5097 33.3698 13.7925 33.1142 13.1685C32.8585 12.5445 32.475 12.057 31.9637 11.706C31.4523 11.355 30.8132 11.1795 30.0462 11.1795C29.2792 11.1752 28.64 11.3485 28.1287 11.6995C27.6217 12.0505 27.2403 12.5402 26.9847 13.1685C26.729 13.7925 26.5968 14.5097 26.5882 15.32C26.5795 16.1303 26.703 16.8475 26.9587 17.4715C27.2187 18.0912 27.6065 18.5787 28.1222 18.934C28.6378 19.285 29.2792 19.4605 30.0462 19.4605Z" fill="black"/>
<path d="M35.8316 20V10.64H36.5791V19.272H41.1292V20H35.8316Z" fill="black"/>
<path d="M42.4697 20V10.64H43.2172V19.272H47.7672V20H42.4697Z" fill="black"/>
<path d="M58 0H61L61.1274 57.8376C61.9814 56.4722 62.9953 55.2062 64.1508 54.0665C66.1008 52.1432 68.4159 50.6175 70.9637 49.5766C73.5115 48.5357 76.2423 48 79 48V51.1068C76.656 51.1068 74.3348 51.5622 72.1692 52.447C70.0035 53.3317 68.0357 54.6286 66.3782 56.2634C64.7207 57.8982 63.4058 59.839 62.5088 61.975C61.6118 64.111 61.15 69.737 61.15 72H57.85C57.85 69.688 57.3883 64.111 56.4913 61.975C55.5943 59.839 54.2794 57.8982 52.6219 56.2634C50.9644 54.6286 48.9966 53.3317 46.8309 52.447C44.6653 51.5622 42.3441 51.1068 40 51.1068V48C42.7578 48 45.4886 48.5357 48.0364 49.5766C50.5842 50.6175 52.8993 52.1432 54.8493 54.0665C56.0048 55.2062 57.0187 56.4722 57.8727 57.8376L58 0Z" fill="#F8F8ED"/>
<path d="M71.91 44V34.64H74.6985C74.8069 34.64 74.9824 34.6422 75.225 34.6465C75.472 34.6508 75.706 34.6703 75.927 34.705C76.629 34.8003 77.2119 35.0647 77.6755 35.498C78.1392 35.927 78.4859 36.473 78.7155 37.136C78.9452 37.7947 79.06 38.5227 79.06 39.32C79.06 40.1217 78.9452 40.854 78.7155 41.517C78.4859 42.1757 78.1392 42.7195 77.6755 43.1485C77.2119 43.5775 76.629 43.8397 75.927 43.935C75.706 43.9653 75.4699 43.9848 75.2185 43.9935C74.9715 43.9978 74.7982 44 74.6985 44H71.91ZM72.6965 43.2655H74.6985C74.8935 43.2655 75.095 43.2612 75.303 43.2525C75.511 43.2395 75.6887 43.22 75.836 43.194C76.4167 43.09 76.8847 42.8603 77.24 42.505C77.5954 42.1453 77.8532 41.6925 78.0135 41.1465C78.1782 40.5962 78.2605 39.9873 78.2605 39.32C78.2605 38.6483 78.1782 38.0395 78.0135 37.4935C77.8489 36.9432 77.5889 36.4903 77.2335 36.135C76.8782 35.7753 76.4124 35.5457 75.836 35.446C75.6887 35.42 75.5067 35.4027 75.29 35.394C75.0777 35.381 74.8805 35.3745 74.6985 35.3745H72.6965V43.2655Z" fill="black"/>
<path d="M84.3423 44.195C83.4106 44.195 82.6284 43.9892 81.9958 43.5775C81.3631 43.1615 80.8864 42.5873 80.5658 41.855C80.2451 41.1227 80.0848 40.2777 80.0848 39.32C80.0848 38.3623 80.2451 37.5173 80.5658 36.785C80.8864 36.0527 81.3631 35.4807 81.9958 35.069C82.6284 34.653 83.4106 34.445 84.3423 34.445C85.2739 34.445 86.0539 34.653 86.6823 35.069C87.3149 35.4807 87.7916 36.0527 88.1123 36.785C88.4329 37.5173 88.5933 38.3623 88.5933 39.32C88.5933 40.2777 88.4329 41.1227 88.1123 41.855C87.7916 42.5873 87.3149 43.1615 86.6823 43.5775C86.0539 43.9892 85.2739 44.195 84.3423 44.195ZM84.3423 43.4605C85.1093 43.4648 85.7484 43.2915 86.2598 42.9405C86.7711 42.5852 87.1546 42.0955 87.4103 41.4715C87.6659 40.8475 87.7938 40.1303 87.7938 39.32C87.7938 38.5097 87.6659 37.7925 87.4103 37.1685C87.1546 36.5445 86.7711 36.057 86.2598 35.706C85.7484 35.355 85.1093 35.1795 84.3423 35.1795C83.5753 35.1752 82.9361 35.3485 82.4248 35.6995C81.9178 36.0505 81.5364 36.5402 81.2808 37.1685C81.0251 37.7925 80.8929 38.5097 80.8843 39.32C80.8756 40.1303 80.9991 40.8475 81.2548 41.4715C81.5148 42.0912 81.9026 42.5787 82.4183 42.934C82.9339 43.285 83.5753 43.4605 84.3423 43.4605Z" fill="black"/>
<path d="M91.6192 44L88.9347 34.64H89.7082L92.0027 42.687L94.2907 34.64H95.0772L97.3717 42.687L99.6597 34.64H100.446L97.7552 44H96.9882L94.6872 35.979L92.3862 44H91.6192Z" fill="black"/>
<path d="M101.701 44V34.64H102.455L107.876 42.6675V34.64H108.63V44H107.876L102.455 35.9595V44H101.701Z" fill="black"/>
</svg>
