<svg width="74" height="40" viewBox="0 0 74 40" fill="none" xmlns="http://www.w3.org/2000/svg">
<path fill-rule="evenodd" clip-rule="evenodd" d="M10.8162 1.21939C11.7324 2.87011 12.3575 3.92244 12.9069 4.73892C13.2412 5.23579 13.5147 5.67987 13.5147 5.72583C13.5147 5.84142 13.4278 5.83183 12.8869 5.65678C12.6277 5.57287 12.1241 5.42518 11.7677 5.32847C11.4113 5.23182 10.9239 5.07681 10.6847 4.98402C10.4454 4.89123 10.2307 4.81528 10.2075 4.81528C10.1843 4.81528 10.1681 11.3435 10.1714 19.3224C10.1747 27.3013 10.1643 33.8396 10.1483 33.8519C10.1322 33.8642 9.88756 33.6705 9.60449 33.4214C9.3215 33.1723 8.98201 32.9026 8.85024 32.8221C8.7184 32.7416 8.36036 32.4748 8.05448 32.2291L7.49838 31.7825L7.50058 24.102C7.5018 19.8777 7.51959 14.6587 7.54019 12.5041C7.56072 10.3494 7.55342 7.90248 7.52385 7.06636L7.47009 5.54615L7.07281 5.51072L7.25674 5.14838C7.35786 4.94912 7.68283 4.39161 7.97898 3.90952C8.27505 3.42744 8.57744 2.90121 8.65089 2.74013C8.72441 2.57904 8.90491 2.24992 9.05204 2.00873C9.54146 1.20658 9.92261 0.520731 10.0246 0.258904L10.1254 0L10.3086 0.317374C10.4092 0.491906 10.6377 0.897803 10.8162 1.21939ZM6.47755 6.40858C6.53291 6.84734 6.57419 30.3097 6.51967 30.3045C6.39848 30.293 5.3055 29.5292 5.11914 29.3258L4.89713 29.0835L4.88245 18.3673C4.87059 9.76492 4.88686 7.62224 4.96487 7.50489C5.01832 7.42449 5.18636 7.26686 5.33819 7.1546C5.49003 7.04233 5.70232 6.83184 5.80991 6.68684C6.10104 6.29439 6.32321 6.04402 6.38053 6.04355C6.40859 6.04332 6.45223 6.20762 6.47755 6.40858ZM14.2595 6.72554C14.4804 7.04163 14.781 7.42648 14.9277 7.58084L15.1943 7.86138L15.2162 17.9885C15.2283 23.5583 15.2644 28.1856 15.2964 28.2712C15.3457 28.4028 15.3077 28.4663 15.0515 28.6805C14.8847 28.82 14.5191 29.1709 14.239 29.4603C13.959 29.7497 13.68 30.0082 13.619 30.0346C13.5222 30.0767 13.5129 28.6076 13.5448 18.3114C13.5649 11.8372 13.6051 6.42793 13.6339 6.29082C13.702 5.96836 13.7573 6.00672 14.2595 6.72554ZM16.8362 6.98726C16.9539 7.02415 17.1871 7.07022 17.3544 7.08958L17.6585 7.12483V11.3931C17.6585 13.7407 17.6445 15.8193 17.6273 16.0122C17.5881 16.4511 17.4958 16.6734 17.2748 16.8601C17.1797 16.9404 16.9806 17.1664 16.8325 17.3622C16.6843 17.5581 16.5188 17.7465 16.4645 17.781C16.384 17.8323 16.3611 16.8472 16.3394 12.382C16.313 6.92247 16.3131 6.92019 16.4676 6.92019C16.5526 6.92019 16.7185 6.95036 16.8362 6.98726ZM3.23664 9.45912L3.66843 9.80544L3.70645 13.9613C3.72735 16.247 3.73732 18.127 3.7285 18.1391C3.71975 18.1512 3.61711 18.0382 3.5004 17.8879C3.38376 17.7376 3.10145 17.3988 2.87312 17.135L2.45798 16.6554L2.40521 15.5152C2.36332 14.6086 2.31405 9.82906 2.33716 8.90816L2.34233 8.70352L2.57355 8.90816C2.70075 9.02072 2.99911 9.26863 3.23664 9.45912ZM19.9838 18.9951L19.9395 22.5627L19.6954 22.7664C19.3843 23.0261 18.1918 24.1857 17.9555 24.4583C17.8566 24.5724 17.6851 24.7512 17.5743 24.8558C17.4248 24.9968 17.4027 25.0458 17.4885 25.0458C17.6369 25.0458 17.6795 25.1854 17.743 25.8798C17.7925 26.4216 17.7863 26.4566 17.6026 26.6701C17.4969 26.793 17.3227 27.0265 17.2156 27.1891C17.002 27.5132 16.6858 27.8261 16.4908 27.9064C16.3756 27.9538 16.3662 27.6204 16.3691 23.5561L16.3723 19.1543L16.6157 18.9411C16.7497 18.8238 16.932 18.6181 17.021 18.484C17.11 18.3499 17.2988 18.1058 17.4406 17.9415C17.5825 17.7772 17.8 17.4402 17.924 17.1925C18.2295 16.5824 18.3333 16.4342 18.8117 15.9245C19.3183 15.385 19.8976 14.6941 19.9127 14.6117C19.9188 14.578 19.9473 14.7478 19.976 14.989C20.0046 15.2302 20.0082 17.0329 19.9838 18.9951ZM1.07045 16.1198C1.38614 16.5327 1.66754 16.9537 1.69567 17.0553C1.81329 17.4796 2.53097 18.4535 3.11932 18.9872L3.7107 19.5236L3.73678 22.8109C3.75115 24.619 3.73952 26.0983 3.71101 26.0983C3.62889 26.0983 3.33776 25.8742 3.19474 25.701C3.00352 25.4692 2.25634 24.7576 2.1524 24.7082C2.10336 24.6849 1.76334 24.3763 1.39686 24.0226C0.632727 23.285 0.389496 23.0716 0.142236 22.922C0.0175415 22.8465 -0.0210053 22.7781 0.0103964 22.6881C0.034803 22.6181 0.0552556 20.7848 0.0558639 18.6141L0.0570043 14.6674L0.276739 15.0183C0.397556 15.2112 0.75476 15.7069 1.07045 16.1198ZM2.90916 27.3543C3.18608 27.627 3.49614 27.9006 3.5981 27.9623L3.78354 28.0745L3.764 29.7704C3.74195 31.6845 3.77966 31.612 3.16881 30.9159C2.96672 30.6856 2.66882 30.3794 2.50694 30.2355L2.21254 29.9739L2.27717 29.5417C2.31276 29.304 2.31952 28.697 2.2923 28.1927C2.24874 27.3851 2.28143 26.8584 2.37518 26.8584C2.39191 26.8584 2.63225 27.0815 2.90916 27.3543ZM14.9331 31.1682C14.354 32.2875 13.3919 34.1708 12.968 35.0149C12.8388 35.2722 12.6222 35.6537 12.4868 35.8627C12.3513 36.0718 12.1157 36.4748 11.9633 36.7585C11.8109 37.0422 11.556 37.4764 11.3971 37.7233C11.238 37.9702 10.8912 38.5869 10.6265 39.0936C10.3616 39.6004 10.1367 40.0082 10.1266 39.9999C10.1164 39.9916 9.98086 39.748 9.82529 39.4586C9.1873 38.2717 8.95152 37.8442 8.53532 37.1198C8.29505 36.7018 7.84866 35.8993 7.54331 35.3365C7.23796 34.7737 6.74177 33.8791 6.44075 33.3485C5.29577 31.3304 4.96001 30.685 4.81425 30.222L4.7595 30.0481L4.92617 30.1635C5.01786 30.2269 5.30808 30.5157 5.57116 30.8051C6.14148 31.4325 6.29751 31.551 6.74884 31.6994C7.17059 31.8382 7.2337 31.8977 7.35072 32.2668C7.50278 32.7468 7.83041 33.0971 9.0144 34.0451L10.1399 34.9463L10.6856 34.396C11.753 33.3193 11.8843 33.1798 12.258 32.726C12.6326 32.2711 13.3449 31.6262 14.2831 30.8928C14.5505 30.6838 14.9232 30.3567 15.1114 30.1661C15.6377 29.6331 15.5906 29.8971 14.9331 31.1682Z" fill="#F8F8ED"/>
<path d="M39.328 23.116L36.628 16.12C36.548 15.912 36.464 15.672 36.376 15.4C36.288 15.12 36.204 14.824 36.124 14.512C35.956 15.16 35.784 15.7 35.608 16.132L32.908 23.116H39.328ZM44.176 29.5H42.376C42.168 29.5 42 29.448 41.872 29.344C41.744 29.24 41.648 29.108 41.584 28.948L39.976 24.796H32.26L30.652 28.948C30.604 29.092 30.512 29.22 30.376 29.332C30.24 29.444 30.072 29.5 29.872 29.5H28.072L34.948 12.304H37.3L44.176 29.5Z" fill="#F8F8ED"/>
<path d="M50.4822 20.632C51.1542 20.632 51.7462 20.552 52.2582 20.392C52.7782 20.224 53.2102 19.992 53.5542 19.696C53.9062 19.392 54.1702 19.032 54.3462 18.616C54.5222 18.2 54.6102 17.74 54.6102 17.236C54.6102 16.212 54.2742 15.44 53.6022 14.92C52.9302 14.4 51.9222 14.14 50.5782 14.14H48.0342V20.632H50.4822ZM58.4262 29.5H56.3622C55.9382 29.5 55.6262 29.336 55.4262 29.008L50.9622 22.864C50.8262 22.672 50.6782 22.536 50.5182 22.456C50.3662 22.368 50.1262 22.324 49.7982 22.324H48.0342V29.5H45.7182V12.304H50.5782C51.6662 12.304 52.6062 12.416 53.3982 12.64C54.1902 12.856 54.8422 13.172 55.3542 13.588C55.8742 14.004 56.2582 14.508 56.5062 15.1C56.7542 15.684 56.8782 16.34 56.8782 17.068C56.8782 17.676 56.7822 18.244 56.5902 18.772C56.3982 19.3 56.1182 19.776 55.7502 20.2C55.3902 20.616 54.9462 20.972 54.4182 21.268C53.8982 21.564 53.3062 21.788 52.6422 21.94C52.9382 22.108 53.1942 22.352 53.4102 22.672L58.4262 29.5Z" fill="#F8F8ED"/>
<path d="M71.953 25.948C72.081 25.948 72.193 26 72.289 26.104L73.213 27.1C72.509 27.916 71.653 28.552 70.645 29.008C69.645 29.464 68.433 29.692 67.009 29.692C65.777 29.692 64.657 29.48 63.649 29.056C62.641 28.624 61.781 28.024 61.069 27.256C60.357 26.48 59.805 25.552 59.413 24.472C59.021 23.392 58.825 22.204 58.825 20.908C58.825 19.612 59.029 18.424 59.437 17.344C59.845 16.264 60.417 15.336 61.153 14.56C61.897 13.784 62.785 13.184 63.817 12.76C64.849 12.328 65.989 12.112 67.237 12.112C68.461 12.112 69.541 12.308 70.477 12.7C71.413 13.092 72.237 13.624 72.949 14.296L72.181 15.364C72.133 15.444 72.069 15.512 71.989 15.568C71.917 15.616 71.817 15.64 71.689 15.64C71.545 15.64 71.369 15.564 71.161 15.412C70.953 15.252 70.681 15.076 70.345 14.884C70.009 14.692 69.589 14.52 69.085 14.368C68.581 14.208 67.961 14.128 67.225 14.128C66.337 14.128 65.525 14.284 64.789 14.596C64.053 14.9 63.417 15.344 62.881 15.928C62.353 16.512 61.941 17.224 61.645 18.064C61.349 18.904 61.201 19.852 61.201 20.908C61.201 21.98 61.353 22.936 61.657 23.776C61.969 24.616 62.389 25.328 62.917 25.912C63.453 26.488 64.081 26.928 64.801 27.232C65.529 27.536 66.313 27.688 67.153 27.688C67.665 27.688 68.125 27.66 68.533 27.604C68.949 27.54 69.329 27.444 69.673 27.316C70.025 27.188 70.349 27.028 70.645 26.836C70.949 26.636 71.249 26.4 71.545 26.128C71.681 26.008 71.817 25.948 71.953 25.948Z" fill="#F8F8ED"/>
</svg>
